<?xml version="1.0" standalone="no"?>
<!DOCTYPE svg PUBLIC "-//W3C//DTD SVG 20010904//EN"
 "http://www.w3.org/TR/2001/REC-SVG-20010904/DTD/svg10.dtd">
<svg version="1.0" xmlns="http://www.w3.org/2000/svg"
 width="25.000000pt" height="25.000000pt" viewBox="0 0 512.000000 512.000000"
 preserveAspectRatio="xMidYMid meet">

<g transform="translate(0.000000,512.000000) scale(0.100000,-0.100000)"
fill="white" stroke="none">
<path d="M2404 4260 c-745 -72 -1362 -623 -1514 -1353 -142 -681 154 -1394
735 -1773 505 -329 1140 -370 1680 -109 97 46 229 130 257 161 74 84 59 234
-32 305 -80 63 -168 62 -272 -5 -131 -83 -290 -148 -450 -182 -117 -26 -380
-25 -498 0 -257 55 -466 169 -651 355 -188 189 -299 392 -355 651 -26 119 -26
381 0 500 53 246 163 455 334 632 180 187 363 293 622 361 106 28 129 30 290
31 194 1 276 -12 430 -66 191 -68 330 -156 481 -307 243 -242 361 -515 376
-868 7 -185 -2 -228 -62 -288 -98 -99 -261 -78 -332 43 l-28 47 -5 385 c-4
333 -7 389 -22 415 -77 141 -284 146 -364 10 l-26 -45 -28 20 c-47 34 -171 88
-240 106 -85 22 -253 22 -342 1 -272 -66 -489 -283 -555 -555 -21 -88 -21
-256 0 -344 89 -367 447 -617 813 -568 159 21 317 96 426 203 l48 46 25 -33
c71 -93 239 -188 377 -212 204 -37 400 27 553 181 165 165 214 343 186 675
-20 237 -75 440 -172 633 -287 571 -834 925 -1469 950 -69 3 -166 2 -216 -3z
m307 -1421 c67 -36 98 -68 137 -143 22 -43 26 -64 26 -136 1 -78 -2 -90 -33
-148 -38 -70 -70 -100 -145 -140 -43 -22 -64 -26 -136 -26 -72 0 -93 4 -136
26 -75 40 -107 70 -145 140 -31 58 -34 70 -33 148 0 100 24 160 89 225 100
100 249 121 376 54z"/>
</g>
</svg>
